Patient4_TMGait_0pt2_02_right_05_GRF.mot
version=1
nRows=65
nColumns=19
inDegrees=no
endheader
time	F1x	F1y	F1z	M1x	M1y	M1z	F2x	F2y	F2z	M2x	M2y	M2z	EC1x	EC1y	EC1z	EC2x	EC2y	EC2z
9.96	-18.3095	828.8703	55.5239	-274.6911	-56.9357	841.989	-6.2127	28.7727	-2.7546	12.3216	3.0293	21.7902	-0.0592	0.0182	-0.0073	-0.0462	0.0165	0.9585
9.9833	-19.372	843.8752	55.3122	-280.0212	-57.1358	856.3589	-4.4446	24.0513	-2.1375	10.0774	2.3904	18.6676	-0.0592	0.0182	-0.0073	-0.0462	0.0165	0.9585
10.0066	-20.1081	858.0232	54.878	-285.2129	-56.8372	869.1525	-2.9792	18.6583	-1.4991	7.6496	1.7515	14.8542	-0.0592	0.0182	-0.0073	-0.0462	0.0165	0.9585
10.0299	-20.2023	868.8147	54.0941	-289.4402	-55.7976	877.7271	-1.8233	13.2775	-0.92939	5.3208	1.1679	10.8804	-0.0592	0.0182	-0.0073	-0.0462	0.0165	0.9585
10.0531	-19.3832	874.2941	52.8835	-292.0374	-53.8748	880.0499	-0.93048	8.5305	-0.49074	3.3244	0.68139	7.2686	-0.0592	0.0182	-0.0073	-0.0462	0.0165	0.9585
10.0764	-17.4897	873.3577	51.2636	-292.5981	-51.0776	875.0195	-0.2926	4.7729	-0.19041	1.781	0.31506	4.3442	-0.0592	0.0182	-0.0073	-0.0462	0.0165	0.9585
10.0997	-14.4838	865.8089	49.3455	-290.9972	-47.5571	862.523	0.11433	2.0566	-0.0080383	0.69226	0.067642	2.1826	-0.0592	0.0182	-0.0073	-0.0462	0.0165	0.9585
10.123	-10.4305	852.2701	47.2944	-287.3752	-43.5518	843.327	0.33654	0.23774	0.084906	-0.015258	-0.077287	0.68592	-0.0592	0.0182	-0.0073	-0.0462	0.0165	0.9585
10.1463	-5.4796	833.9876	45.2716	-282.088	-39.3187	818.8645	0.42566	-0.92587	0.11789	-0.44958	-0.14504	-0.33254	-0.0592	0.0182	-0.0073	-0.0462	0.0165	0.9585
10.1696	0.16398	812.5993	43.3931	-275.6444	-35.0773	790.9804	0.42989	-1.7068	0.11836	-0.726	-0.1641	-1.0911	-0.0592	0.0182	-0.0073	-0.0462	0.0165	0.9585
10.1929	6.2727	789.9217	41.7048	-268.6397	-30.9691	761.6833	0.39238	-2.3647	0.1098	-0.95101	-0.16111	-1.8029	-0.0592	0.0182	-0.0073	-0.0462	0.0165	0.9585
10.2161	12.6087	767.7985	40.182	-261.7012	-27.0522	732.9749	0.35151	-3.1148	0.11211	-1.2124	-0.16575	-2.654	-0.0592	0.0182	-0.0073	-0.0462	0.0165	0.9585
10.2394	18.9136	748.0047	38.7804	-255.4454	-23.3607	706.7531	0.3417	-4.0999	0.14096	-1.5687	-0.2066	-3.768	-0.0592	0.0182	-0.0073	-0.0462	0.0165	0.9585
10.2627	24.9177	732.1456	37.4915	-250.4351	-19.9628	684.7144	0.39234	-5.3618	0.20662	-2.0385	-0.30533	-5.1754	-0.0592	0.0182	-0.0073	-0.0462	0.0165	0.9585
10.286	30.3691	721.4786	36.3639	-247.1108	-16.9714	668.1758	0.52554	-6.8075	0.3108	-2.5872	-0.47408	-6.7747	-0.0592	0.0182	-0.0073	-0.0462	0.0165	0.9585
10.3093	35.062	716.6406	35.5045	-245.693	-14.5393	657.8199	0.75398	-8.1638	0.44629	-3.1109	-0.7119	-8.2787	-0.0592	0.0182	-0.0073	-0.0462	0.0165	0.9585
10.3326	38.8465	717.3656	35.0652	-246.0853	-12.8452	653.4464	1.0778	-8.9285	0.59399	-3.418	-0.99714	-9.158	-0.0592	0.0182	-0.0073	-0.0462	0.0165	0.9585
10.3559	41.6586	722.3646	35.2071	-247.8356	-12.0538	653.8653	1.477	-8.3245	0.71749	-3.2104	-1.2819	-8.5876	-0.0592	0.0182	-0.0073	-0.0462	0.0165	0.9585
10.3791	43.528	729.4313	36.0397	-250.1783	-12.2542	657.0172	1.9022	-5.27	0.75616	-2.0724	-1.4793	-5.4161	-0.0592	0.0182	-0.0073	-0.0462	0.0165	0.9585
10.4024	44.522	735.8049	37.5591	-252.1626	-13.4188	660.3358	2.2583	1.5928	0.61988	0.5193	-1.4496	1.8043	-0.0592	0.0182	-0.0073	-0.0462	0.0165	0.9585
10.4257	44.6834	738.6532	39.6233	-252.8207	-15.4014	661.2109	2.3884	13.7737	0.19281	5.1477	-0.99862	14.6849	-0.0592	0.0182	-0.0073	-0.0462	0.0165	0.9585
10.449	44.0115	735.4623	41.9605	-251.3025	-17.9526	657.3403	2.0623	32.6707	-0.6627	12.3576	0.11884	34.7253	-0.0592	0.0182	-0.0073	-0.0462	0.0165	0.9585
10.4723	42.4746	724.2654	44.1945	-246.9593	-20.7424	646.933	0.94371	59.1451	-2.0891	22.4948	2.1894	62.866	-0.0592	0.0182	-0.0073	-0.0462	0.0165	0.9585
10.4956	40.0487	703.8498	45.9017	-239.4134	-23.4014	628.8834	-1.4448	92.9821	-4.165	35.4987	5.479	98.9074	-0.0592	0.0182	-0.0073	-0.0462	0.0165	0.9585
10.5189	36.7809	674.0588	46.7159	-228.6514	-25.5923	603.0068	-5.2911	132.6395	-6.9115	50.7943	10.0751	141.226	-0.0592	0.0182	-0.0073	-0.0462	0.0165	0.9585
10.5421	32.858	636.0982	46.4367	-215.1179	-27.0758	570.2628	-10.247	175.5851	-10.4065	67.4008	15.9152	187.0945	-0.0592	0.0182	-0.0073	-0.0462	0.0165	0.9585
10.5654	28.6268	592.4723	45.0917	-199.6917	-27.7529	532.6948	-15.7114	219.4735	-14.5396	84.4066	22.642	233.9393	-0.0592	0.0182	-0.0073	-0.0462	0.0165	0.9585
10.5887	24.5152	546.3252	42.8948	-183.4629	-27.6534	492.8808	-21.0769	263.1172	-18.8705	101.3649	29.5607	280.4135	-0.0592	0.0182	-0.0073	-0.0462	0.0165	0.9585
10.612	20.8885	500.5024	40.1234	-167.4176	-26.8793	453.1585	-25.8238	305.6616	-22.8824	117.9624	35.9343	325.5373	-0.0592	0.0182	-0.0073	-0.0462	0.0165	0.9585
10.6353	17.9598	457.0952	37.0504	-152.2821	-25.5782	415.261	-29.5574	345.8862	-26.2108	133.7268	41.2309	367.9722	-0.0592	0.0182	-0.0073	-0.0462	0.0165	0.9585
10.6586	15.7809	417.3978	33.9308	-138.505	-23.9371	380.2967	-32.0547	382.3176	-28.6916	148.0676	45.1878	406.1538	-0.0592	0.0182	-0.0073	-0.0462	0.0165	0.9585
10.6819	14.3086	382.0396	30.975	-126.2996	-22.1428	348.8442	-33.317	413.719	-30.3002	160.4754	47.7732	438.8069	-0.0592	0.0182	-0.0073	-0.0462	0.0165	0.9585
10.7051	13.491	351.1713	28.3321	-115.7023	-20.3413	321.0887	-33.5177	439.5705	-31.0868	170.7222	49.1017	465.4356	-0.0592	0.0182	-0.0073	-0.0462	0.0165	0.9585
10.7284	13.3171	324.6267	26.0721	-106.6328	-18.6031	296.9483	-32.9156	460.136	-31.159	178.8935	49.3813	486.3807	-0.0592	0.0182	-0.0073	-0.0462	0.0165	0.9585
10.7517	13.8166	302.0162	24.173	-98.9342	-16.9081	276.1461	-31.8213	476.2083	-30.6579	185.2884	48.8777	502.5506	-0.0592	0.0182	-0.0073	-0.0462	0.0165	0.9585
10.775	15.0424	282.696	22.5443	-92.3712	-15.1737	258.1766	-30.5676	488.8596	-29.7256	190.3215	47.8668	515.1484	-0.0592	0.0182	-0.0073	-0.0462	0.0165	0.9585
10.7983	17.0575	265.6385	21.0623	-86.5914	-13.2865	242.1827	-29.4598	499.2803	-28.5158	194.4532	46.6209	525.4832	-0.0592	0.0182	-0.0073	-0.0462	0.0165	0.9585
10.8216	19.8933	249.325	19.5821	-81.0894	-11.1208	226.8556	-28.7442	508.7376	-27.221	198.1687	45.4237	534.9073	-0.0592	0.0182	-0.0073	-0.0462	0.0165	0.9585
10.8449	23.4552	231.8575	17.9455	-75.2458	-8.5732	210.533	-28.6029	518.6387	-26.0704	202.0069	44.5699	544.8743	-0.0592	0.0182	-0.0073	-0.0462	0.0165	0.9585
10.8681	27.4202	211.4625	16.0048	-68.4872	-5.6167	191.6501	-29.1402	530.5525	-25.2985	206.5775	44.334	556.9638	-0.0592	0.0182	-0.0073	-0.0462	0.0165	0.9585
10.8914	31.1914	187.1575	13.6932	-60.4977	-2.382	169.3461	-30.3744	546.0752	-25.0935	212.5156	44.9151	572.7426	-0.0592	0.0182	-0.0073	-0.0462	0.0165	0.9585
10.9147	33.9509	159.183	11.088	-51.3593	0.80096	143.8582	-32.2433	566.52	-25.5474	220.3604	46.3812	593.4564	-0.0592	0.0182	-0.0073	-0.0462	0.0165	0.9585
10.938	34.8859	128.9896	8.3784	-41.5418	3.5054	116.4917	-34.59	592.595	-26.6294	230.4241	48.6288	619.7148	-0.0592	0.0182	-0.0073	-0.0462	0.0165	0.9585
10.9613	33.5047	98.7801	5.806	-31.7517	5.3628	89.2027	-37.1529	624.1645	-28.1916	242.6918	51.3854	651.2485	-0.0592	0.0182	-0.0073	-0.0462	0.0165	0.9585
10.9846	29.8381	70.8101	3.5906	-22.7112	6.187	63.9774	-39.5948	660.193	-29.9979	256.7923	54.2521	686.8722	-0.0592	0.0182	-0.0073	-0.0462	0.0165	0.9585
11.0079	24.4407	46.7808	1.8685	-14.9635	6.0275	42.316	-41.5737	698.995	-31.7966	272.0835	56.808	724.761	-0.0592	0.0182	-0.0073	-0.0462	0.0165	0.9585
11.0311	18.2295	27.6089	0.68285	-8.7979	5.1319	25.0291	-42.8051	738.6868	-33.3729	287.8223	58.6863	762.9301	-0.0592	0.0182	-0.0073	-0.0462	0.0165	0.9585
11.0544	12.1771	13.4779	-0.018949	-4.2663	3.856	12.2781	-43.076	777.4728	-34.5507	303.2785	59.5939	799.5344	-0.0592	0.0182	-0.0073	-0.0462	0.0165	0.9585
11.0777	6.9958	3.9852	-0.35155	-1.2321	2.5293	3.7008	-42.2553	813.4974	-35.2166	317.6821	59.3535	832.7264	-0.0592	0.0182	-0.0073	-0.0462	0.0165	0.9585
11.101	3.0087	-1.6693	-0.43901	0.56842	1.3655	-1.4209	-40.3311	844.5062	-35.3797	330.0953	57.9857	860.3375	-0.0592	0.0182	-0.0073	-0.0462	0.0165	0.9585
11.1243	0.2258	-4.4514	-0.38428	1.4493	0.45674	-3.9497	-37.462	867.9124	-35.1911	339.4459	55.7458	879.9512	-0.0592	0.0182	-0.0073	-0.0462	0.0165	0.9585
11.1476	-1.5156	-5.2853	-0.26432	1.7091	-0.18467	-4.7161	-33.9328	881.4896	-34.8789	344.8124	53.0331	889.5491	-0.0592	0.0182	-0.0073	-0.0462	0.0165	0.9585
11.1709	-2.4491	-4.9431	-0.12894	1.5961	-0.59267	-4.4181	-30.0051	884.2515	-34.6077	345.7872	50.1816	888.3091	-0.0592	0.0182	-0.0073	-0.0462	0.0165	0.9585
11.1941	-2.816	-4.0102	-0.0043927	1.2966	-0.8215	-3.5821	-25.866	876.8846	-34.4181	342.6513	47.3656	876.9997	-0.0592	0.0182	-0.0073	-0.0462	0.0165	0.9585
11.2174	-2.8301	-2.8907	0.096766	0.93862	-0.92862	-2.5736	-21.6779	861.605	-34.2486	336.3098	44.6305	857.8568	-0.0592	0.0182	-0.0073	-0.0462	0.0165	0.9585
11.2407	-2.657	-1.8392	0.17122	0.60222	-0.9635	-1.6313	-17.5843	841.5901	-33.9934	328.0555	41.9514	834.0323	-0.0592	0.0182	-0.0073	-0.0462	0.0165	0.9585
11.264	-2.4155	-1.0031	0.22199	0.33524	-0.96274	-0.89207	-13.7	820.2038	-33.5568	319.2505	39.2823	808.8362	-0.0592	0.0182	-0.0073	-0.0462	0.0165	0.9585
11.2873	-2.1811	-0.45637	0.25418	0.16409	-0.95077	-0.42465	-10.1129	800.2715	-32.8828	311.0345	36.5913	785.0511	-0.0592	0.0182	-0.0073	-0.0462	0.0165	0.9585
11.3106	-1.9935	-0.23106	0.27299	0.10109	-0.94113	-0.2627	-6.8792	783.5999	-31.9575	304.1365	33.8637	764.4766	-0.0592	0.0182	-0.0073	-0.0462	0.0165	0.9585
11.3339	-1.865	-0.33809	0.2825	0.15175	-0.93639	-0.42312	-3.9962	770.8819	-30.8151	298.839	31.1056	747.8229	-0.0592	0.0182	-0.0073	-0.0462	0.0165	0.9585
11.3571	-1.7886	-0.77168	0.28507	0.31623	-0.93426	-0.9084	-1.4019	761.8959	-29.527	295.0597	28.3406	734.8986	-0.0592	0.0182	-0.0073	-0.0462	0.0165	0.9585
11.3804	-1.7436	-1.5061	0.27986	0.58713	-0.92719	-1.697	0.99922	755.8813	-28.1815	292.5007	25.6072	724.9724	-0.0592	0.0182	-0.0073	-0.0462	0.0165	0.9585
11.4037	-1.6964	-2.4836	0.26275	0.94426	-0.89925	-2.7328	3.3112	751.9323	-26.879	290.8028	22.9623	717.1548	-0.0592	0.0182	-0.0073	-0.0462	0.0165	0.9585
11.427	-1.597	-3.588	0.22911	1.3445	-0.83013	-3.8955	5.6295	749.2759	-25.7344	289.6544	20.4851	710.6739	-0.0592	0.0182	-0.0073	-0.0462	0.0165	0.9585
11.4503	-1.3906	-4.6009	0.17336	1.7089	-0.69563	-4.959	8.0216	747.3856	-24.8712	288.8352	18.2756	705.0075	-0.0592	0.0182	-0.0073	-0.0462	0.0165	0.9585
